Patient4_TMGait_0pt3_03_left_30_EMG.mot
version=1
nRows=33
nColumns=33
inDegrees=no
endheader
time	1LAddLong	2LGlutMax	3LGlutMed	4LIliopsoas	5LSemiMemb	6LBicFemLong	7LRecFem	8LVastMed	9LVastLat	10LGasMed	11LTibAnt	12lTibPost	13LPeroneusLong	14LSol	15LExtDigLong	16LFlexDigLong	17RAddLong	18RGlutMax	19RGlutMed	20RIliopsoas	21RSemiMemb	22RBicFemLong	23RRecFem	24RVastMed	25RVastLat	26RGasMed	27RTibAnt	28RTibPost	29RPeroneusLong	30RSol	31RExtDigLong	32RFlexDigLong
53.16	0.013428	-0.33814	-0.030365	-0.014496	0.010834	0.007477	0.001221	0.013733	0.005035	0.010376	0.29373	-0.001068	0.027161	-0.069275	0.19501	0.002441	0.00885	-0.015411	0.14435	-0.047913	0.25574	0.034485	-0.54764	-0.59845	0.09201	0.036163	-0.086975	-0.094757	0.58426	0.33737	-0.00885	-0.012512
53.161	0.007324	-0.35049	-0.026093	-0.026855	0.002747	0.019226	-0.015869	0.015411	0.004272	0.016937	0.18265	0.001373	0.011902	-0.010681	-0.075378	0.032654	-0.025024	-0.029297	0.15686	-0.002441	0.14191	-0.10803	-0.672	-0.50964	0.28397	0.023193	-0.026093	0.11673	-0.31967	0.35828	-0.008698	-0.001984
53.162	0.010834	-0.35919	-0.010071	-0.016327	0.001526	0.01297	-0.00412	0.014954	0.010376	0.039215	-0.049438	-0.007782	0.042877	-0.021057	-0.10956	0.011597	-0.007477	-0.098877	-0.14252	-0.047607	-0.10742	-0.20721	-0.22827	-0.19241	0.081482	0.029755	0.006104	0.066376	-0.44754	-0.11444	-0.008087	-0.002289
53.163	0.003815	-0.36057	0.005035	0.013733	0.011902	-0.016937	-0.019379	0.012817	0.027618	-0.017395	-0.29037	0.006866	0.15778	0.046539	0.23407	0.011139	0.042267	-0.12497	-0.059357	-0.05188	-0.10468	-0.43884	-0.003204	-0.0737	-0.007782	0.028839	0.030518	0.028992	-0.11704	-0.40024	-0.005798	-0.001984
53.164	0.005035	-0.35416	0.012665	0.037994	0.000763	-0.001831	-0.05661	0.012512	0.0383	-0.001373	-0.014496	0.010223	0.073547	0.065765	0.18921	-0.000916	0.036621	-0.10605	0.29129	-0.12466	0.13168	-0.44708	-0.071411	-0.10193	0.009613	0.02243	0.076294	0.005035	-0.007324	-0.41611	-0.001373	-0.006866
53.165	0.003967	-0.37659	0	0.052338	0.013733	0.003967	-0.048676	0.014648	0.040283	0.049133	0.054779	0.00351	-0.029907	-0.005951	-0.45807	-0.012817	0.007629	-0.043488	0.1593	-0.21011	-0.07843	-0.23621	-0.11581	-0.32761	-0.028839	0.007629	0.084381	-0.085144	-0.24139	0.055084	-0.00412	-0.001221
53.166	0.000458	-0.40436	-0.036011	0.029297	0.006104	-0.003357	-0.022888	0.013733	0.047913	0.034332	-0.070648	-0.004425	-0.036774	-0.042725	-0.1471	-0.001373	0.039978	-0.090332	-0.007782	-0.20981	-0.49545	-0.085144	-0.066833	-0.28839	-0.18753	0.005188	0.033569	-0.32638	-0.49637	0.14786	-0.009308	0.004425
53.167	-0.005493	-0.3949	-0.032806	-0.009003	0.012207	-0.009918	0.006256	0.014191	0.040894	0.007935	0.019836	-0.005341	0.009003	-0.013428	-0.1799	-0.014343	0.031586	-0.11459	-0.10422	-0.16098	-0.55832	0.018921	-0.092468	-0.052948	-0.33539	0.017242	0.027771	-0.081787	-0.19196	-0.3067	-0.005798	-0.000305
53.168	0.004425	-0.3923	-0.021515	0.001984	0.01709	0.012207	-0.001068	0.014648	0.040588	-0.032806	-0.015259	-0.007782	0.066376	-0.006561	0.045013	0.007935	0.008087	-0.11353	-0.45624	0.028687	0.27237	-0.099487	0.037079	0.063934	-0.31189	0.028839	0.046539	0.23224	0.18158	-0.4657	0.000458	0.010986
53.169	-0.003204	-0.38528	-0.065613	-0.013275	0.00824	0.032043	0.007629	0.002441	0.04303	0.003662	0.052948	0.006409	0.031433	-0.051117	-0.13199	-0.001221	-0.004578	-0.10513	-0.58563	0.15121	0.43518	-0.48553	0.064087	0.10819	-0.099792	0.040741	0.007782	0.19638	0.18341	-0.56152	0.000916	0.011749
53.17	-0.000763	-0.36163	-0.019531	-0.042267	0.015564	0.066528	0.026855	0.008392	0.026245	0.038605	-0.039063	0.003815	-0.030212	-0.07019	-0.26566	0.00351	-0.019989	-0.15869	-0.4039	0.17532	0.11749	-0.58243	0.098419	0.036926	0.007172	0.027618	-0.067444	0.04425	-0.20721	-0.37933	-0.004883	-0.000305
53.171	0.006409	-0.31448	0.028229	-0.028534	0.006256	0.067291	0.016632	0.006561	0.030823	0.04715	-0.10284	-0.001373	-0.016174	-0.075684	-0.20813	0.003815	-0.014648	-0.16022	-0.040588	0.18707	-0.16144	-0.47791	0.10391	-0.060577	0.03006	-0.047302	0.024567	-0.066376	-0.59143	0.15564	-0.004272	0.001984
53.172	-0.00885	-0.26947	0.027313	-0.006714	0.003815	0.075531	0.050659	0.009918	0.03006	0.043488	-0.014191	0.001678	0.000763	0.003052	0.32257	-0.01236	0.016479	-0.18448	0.3125	0.21454	-0.16388	-0.47455	0.11063	-0.081329	0.029297	-0.11108	0.10391	-0.11093	-1.2917	-0.1535	-0.004883	-0.001678
53.173	0.000763	-0.21133	0.009308	0.003204	-0.003662	0.084076	0.029755	0.010071	0.014801	0.041351	0.094299	-0.003662	0.01297	-0.066376	0.049591	0.005493	0.029297	-0.1236	0.46951	0.18707	0.063324	-0.38986	0.088654	0.076904	0.13626	-0.11383	0.007477	-0.42709	-1.1356	-0.36896	-0.007019	-0.003052
53.174	-0.022736	-0.18265	-0.006104	0.012054	0.010071	0.070648	0.031738	0.010681	0.015869	0.037079	0.1564	0.01297	-0.025635	-0.061951	0.36896	-0.004883	0.012817	-0.13763	0.13473	0.089569	0.094452	-0.047607	0.051727	0.11856	0.20477	-0.1059	-0.026093	0.011597	0.93674	-0.21759	-0.003662	-0.001068
53.175	-0.008545	-0.12222	0.015411	0.001373	0.001831	0.057373	0.030823	0.005035	0.027771	0.053101	0.1506	0.006714	-0.082855	0.046387	0.41245	-0.005341	0.022888	-0.15396	0.11871	0.031586	0.067444	0.47195	0.063782	0.04837	0.2182	-0.11627	-0.006561	0.25269	2.8641	-0.19898	-0.001526	-0.005035
53.176	0.00061	-0.085754	0.029602	0.011444	0.00412	0.048523	0.0177	0.002899	0.03479	0.03418	0.12436	0.004272	-0.06073	0.063171	0.019531	0.004425	0.007477	-0.10803	0.21194	-0.016174	0.076447	0.8252	-0.035248	0.048218	0.23163	-0.002747	-0.019379	-0.10391	0.51636	-0.2298	-0.00412	-0.005035
53.177	0.005035	-0.021515	0.011139	0.007782	0.007782	0.052185	0.00946	0.00824	0.04776	0.03067	-0.13351	0.005035	0.065308	0.019989	-0.41351	0.010223	-0.014954	-0.087585	0.43259	-0.019989	0.10819	0.79056	0.010071	0.018616	0.22873	0.093079	0.062408	0.028992	-0.73624	-0.23743	0.000458	-0.013428
53.178	0.007324	-0.033875	0.003967	-0.012512	0.005035	0.03891	0.001831	0.005646	0.055237	0.016785	-0.25955	-0.001068	0.12558	0.030212	-0.27069	0.001221	-0.013733	-0.1741	-0.056915	-0.066376	0.041809	0.5484	0.1535	-0.20157	0.22217	0.10315	0.29205	0.088959	-0.22614	-0.22903	-0.006561	-0.018616
53.179	0.002747	0.018311	0.00946	0.010071	0.016479	0.036316	0.06134	0.00351	0.061646	0.023041	-0.020447	0.008087	0.019073	-0.007477	0.35996	-0.010376	-0.020447	-0.11566	-0.16296	-0.039368	0.021057	0.25772	0.1384	-0.37125	0.04303	0.009308	0.36529	-0.12802	0.2652	0.5693	-0.003357	-0.012207
53.18	0.010986	0.075836	0.005341	0.016937	0.010223	0.024109	0.069733	0.004425	0.057526	0.003204	-0.017853	0.000763	0.015411	0.020142	0.28229	0.009308	-0.003052	-0.13016	-0.044708	-0.084229	0.004425	0.093231	0.17929	-0.49393	-0.36362	0.032501	0.024109	0.28976	1.2498	0.73791	-0.002899	-0.005493
53.181	-0.007477	0.11566	0.007935	0.018768	0.011292	0.01236	0.072174	0.005035	0.056458	-0.006714	0.24506	0.007477	0.04364	0.075836	0.18753	-0.010071	0.023346	-0.055389	0.54947	-0.09079	-0.039978	0.041809	0.13733	-0.4837	-0.39002	0.027008	-0.23331	0.14847	0.7814	0.94345	-0.00061	-0.001526
53.182	0.002594	0.13962	-0.002136	-0.018921	0.01236	-0.009308	0.055542	0.007629	0.053711	0.00061	0.20294	-0.003052	0.051575	-0.015411	-0.4718	-0.010223	0.049438	-0.10559	0.31357	0.019073	-0.08606	-0.072021	0.056458	-0.23407	-0.19989	-0.003815	-0.14633	0.1416	-0.79453	0.51498	-0.002899	-0.011902
53.183	0.004425	0.15259	0.0177	-0.030975	0.015259	-0.002289	0.014343	0.009308	0.036926	0.031433	0.030212	-0.000153	-0.017395	-0.1059	-0.08606	-0.002899	0.057068	-0.09552	-0.008545	0.067902	-0.1152	-0.071869	-0.092773	0.076599	-0.051422	0.000153	-0.044556	-0.027313	-2.0341	0.08316	-0.006561	-0.003052
53.184	-0.00061	0.16205	0.026245	-0.021362	0.015106	-0.00061	-0.011597	0.009003	0.063629	0.031128	0.065613	0.002441	0.015106	-0.10529	-0.26535	-0.010529	0.077667	-0.18036	-0.18646	0.003357	-0.17044	-0.099945	-0.20416	0.28564	0.000458	0.010834	-0.021667	-0.054321	-1.2581	-0.35309	-0.005493	-0.000305
53.185	-0.000916	0.18753	0.039825	-0.005951	0.006561	0.019073	-0.011902	0.012817	0.054169	0.024567	-0.12589	-0.003052	0.056763	-0.12466	-0.17838	-0.004425	0.07431	-0.18097	-0.78354	-0.041809	-0.097351	0.034943	-0.23102	0.31006	-0.03891	0.02243	-0.038452	-0.05249	-0.56839	-0.6105	-0.001831	-0.004578
53.186	0.001678	0.25589	0.046844	-0.007172	0.008698	0.029755	-0.034485	0.013733	0.053406	0.014496	-0.20294	0.00351	0.078125	-0.082245	-0.31891	-0.002899	0.029907	-0.10712	-0.42267	-0.014648	-0.009155	0.12222	-0.21149	0.08255	-0.067291	-0.001526	-0.013733	-0.055847	0.31143	-0.49423	0.000763	0.006104
53.187	0.005493	0.27603	0.065765	0.011749	0.011444	0.024109	-0.035248	0.010376	0.05661	0.029144	-0.077362	0.001221	0.053253	-0.025024	-0.014801	0.010681	0.03006	-0.072479	0.52902	-0.055847	0.15625	-0.025787	-0.052643	-0.033569	-0.097198	-0.001678	-0.007477	-0.056	1.0818	-0.215	-0.003052	-0.002289
53.188	0.000305	0.25284	0.044708	0.028381	0.010376	0.008698	-0.041046	0.019684	0.057373	0.037079	-0.085907	0.004883	0.034943	-0.032806	0.19211	0.008392	0.058899	-0.075531	0.82047	-0.1239	0.20126	0.074463	0.092773	0.011749	-0.10681	0.005493	0.018005	-0.029755	0.44022	-0.17075	-0.000916	0.001831
53.189	0.00061	0.26993	0.001526	0.020905	0.010376	-0.003204	-0.032349	0.014648	0.043335	0.029755	-0.12924	0.006104	0.048828	-0.058594	0.25345	-0.006256	0.075378	-0.13367	0.72403	-0.13794	0.1358	0.30594	-0.085144	0.012665	-0.044861	0.028381	0.056	-0.039215	0.75516	-0.1181	-0.002289	0.00473
53.19	0.003662	0.27527	-0.029297	0.013733	0.006409	-0.009003	-0.028992	0.020294	0.054779	0.023499	-0.090179	-0.002747	0.045166	-0.052948	0.15457	0.00473	0.048065	-0.15106	0.15366	-0.042267	-0.067749	0.30624	-0.19272	0.10635	0.10559	0.018921	0.11826	-0.041199	0.67581	0.25024	0.00061	-0.001831
53.191	0.016785	0.28976	-0.033875	0.007019	0.012512	-0.006104	0.022888	0.01709	0.056305	0.020905	0.06424	0.002289	0.013885	-0.024872	0.02533	0.006256	0.020294	-0.24811	-0.16373	0.093384	-0.093689	0.12878	-0.17792	0.070953	0.15778	-0.091248	0.089722	-0.032501	0.76523	0.36743	0.001526	-0.000763
53.192	0.002136	0.31021	-0.004272	0.015411	-0.00061	-0.001526	0.036011	0.019073	0.058899	0.042267	0.14648	-0.000916	-0.032349	-0.002136	0.021362	-0.003204	-0.03952	-0.16693	0.20889	0.14633	-0.00946	0.016022	-0.21561	0.098877	0.19989	-0.14923	-0.085449	-0.049286	0.26886	0.1236	-0.00351	0.003815
